<svg width="46" height="45" viewBox="0 0 46 45" fill="none" xmlns="http://www.w3.org/2000/svg">
<path fill-rule="evenodd" clip-rule="evenodd" d="M0.981212 0.765457L1.64662 0H43.3727L44.0381 0.765457C44.8555 1.70578 45.1881 2.9733 44.9376 4.1938L37.2724 41.5467C36.8906 43.4072 35.2532 44.7426 33.354 44.7426H11.6653C9.76613 44.7426 8.12876 43.4072 7.74698 41.5467L0.0816989 4.1938C-0.168767 2.9733 0.163799 1.70578 0.981212 0.765457ZM23 14C21.8954 14 21 14.8954 21 16V36C21 37.1046 21.8954 38 23 38C24.1046 38 25 37.1046 25 36V16C25 14.8954 24.1046 14 23 14ZM9.39412 16.749C9.17646 15.6661 9.87787 14.6118 10.9608 14.3941C12.0437 14.1765 13.098 14.8779 13.3157 15.9608L17.2569 35.5686C17.4746 36.6515 16.7732 37.7058 15.6902 37.9235C14.6073 38.1412 13.553 37.4398 13.3353 36.3568L9.39412 16.749ZM34.6922 14.3943C33.6093 14.1765 32.5549 14.8779 32.3372 15.9608L28.3943 35.5682C28.1765 36.6511 28.8779 37.7055 29.9608 37.9233C31.0437 38.141 32.098 37.4397 32.3158 36.3568L36.2587 16.7493C36.4764 15.6664 35.7751 14.612 34.6922 14.3943Z" fill="white"/>
</svg>
